<svg width="512" height="512" viewBox="0 0 512 512" fill="none" xmlns="http://www.w3.org/2000/svg">
<rect width="512" height="512" rx="36" fill="#009EFF"/>
<circle cx="165.636" cy="165.562" r="50.4358" fill="white"/>
<path d="M396.8 165.562C396.8 193.417 374.219 215.998 346.364 215.998C318.509 215.998 295.928 193.417 295.928 165.562C295.928 137.707 318.509 115.127 346.364 115.127C374.219 115.127 396.8 137.707 396.8 165.562Z" fill="white"/>
<path d="M173.581 307.754C167.842 301.799 158.366 301.614 152.398 307.338L143.984 315.409C138.007 321.142 137.808 330.634 143.538 336.614L226.852 423.538C234.166 431.169 246.868 429.043 251.299 419.446L256.697 407.755C259.289 402.141 258.17 395.51 253.878 391.058L173.581 307.754Z" fill="white"/>
<rect width="41.6168" height="207.037" rx="15" transform="matrix(-0.733021 -0.680206 -0.680206 0.733021 379.687 281.748)" fill="white"/>
</svg>
