<svg width="192" height="192" viewBox="0 0 192 192" fill="none" xmlns="http://www.w3.org/2000/svg">
<rect width="192" height="192" rx="36" fill="#009EFF"/>
<circle cx="62.1134" cy="62.0858" r="18.9134" fill="white"/>
<path d="M148.8 62.0858C148.8 72.5314 140.332 80.9992 129.887 80.9992C119.441 80.9992 110.973 72.5314 110.973 62.0858C110.973 51.6402 119.441 43.1724 129.887 43.1724C140.332 43.1724 148.8 51.6402 148.8 62.0858Z" fill="white"/>
<path d="M66.6086 116.98C63.6187 113.878 58.6825 113.781 55.5733 116.764V116.764C52.4596 119.75 52.3557 124.695 55.3411 127.81L82.7906 156.449C86.6283 160.453 93.2929 159.338 95.6178 154.302V154.302C96.978 151.356 96.3907 147.877 94.1389 145.541L66.6086 116.98Z" fill="white"/>
<rect width="15.6063" height="77.6389" rx="7.80314" transform="matrix(-0.733021 -0.680206 -0.680206 0.733021 142.382 105.656)" fill="white"/>
</svg>
